<svg width="1024" height="1024" viewBox="0 0 1024 1024" fill="none" xmlns="http://www.w3.org/2000/svg">
<circle cx="512" cy="499.344" r="456" fill="white"/>
<path fill-rule="evenodd" clip-rule="evenodd" d="M968 499.344C968 751.186 763.842 955.344 512 955.344C260.158 955.344 56 751.186 56 499.344C56 247.502 260.158 43.3439 512 43.3439C763.842 43.3439 968 247.502 968 499.344ZM653.376 680.625L689.521 543.011L233.995 664.159L194.83 618.264L728.238 477.039C728.238 477.039 772.735 465.117 796.856 458.728C803.182 457.052 817.765 459.73 816.859 463.172L746.576 730.078L736.569 767.264C736.401 767.904 733.754 773.61 721.725 769.132C709.085 764.426 661.09 746.121 661.09 746.121L485.037 680.584L542.889 638.604L653.376 680.625Z" fill="url(#paint0_linear_813_16)"/>
<defs>
<linearGradient id="paint0_linear_813_16" x1="45656" y1="36351.1" x2="45656" y2="91243.3" gradientUnits="userSpaceOnUse">
<stop stop-color="#FF3B30"/>
<stop offset="1" stop-color="#E6352B"/>
</linearGradient>
</defs>
</svg>
