<?xml version="1.0" standalone="no"?>
<!DOCTYPE svg PUBLIC "-//W3C//DTD SVG 20010904//EN"
 "http://www.w3.org/TR/2001/REC-SVG-20010904/DTD/svg10.dtd">
<svg version="1.0" xmlns="http://www.w3.org/2000/svg"
 width="700.000000pt" height="700.000000pt" viewBox="0 0 700.000000 700.000000"
 preserveAspectRatio="xMidYMid meet">
<metadata>
Created by potrace 1.14, written by Peter Selinger 2001-2017
</metadata>
<g transform="translate(0.000000,700.000000) scale(0.100000,-0.100000)"
fill="#000000" stroke="none">
<path d="M3295 6993 c-371 -30 -635 -82 -934 -185 -919 -317 -1674 -1011
-2064 -1898 -348 -793 -390 -1690 -117 -2511 296 -891 926 -1615 1770 -2035
1056 -524 2321 -477 3334 126 261 155 450 303 682 535 296 295 490 562 670
925 527 1060 475 2335 -135 3350 -242 401 -588 776 -968 1048 -523 374 -1124
590 -1787 642 -119 9 -356 11 -451 3z m2484 -3184 c28 -6 53 -15 57 -20 7 -12
-597 -2313 -617 -2351 -7 -12 -21 -18 -46 -18 -23 0 -307 101 -782 279 -410
153 -824 307 -918 342 -95 35 -172 67 -170 71 2 6 388 289 425 311 7 5 185
-58 434 -152 232 -89 422 -160 423 -158 6 8 273 1042 271 1045 -2 2 -783 -204
-1735 -457 -953 -254 -1738 -461 -1746 -461 -14 0 -309 339 -302 347 3 2 54
17 113 33 111 29 1731 458 2349 621 690 183 1845 489 2005 533 190 52 174 49
239 35z"/>
</g>
</svg>
