<?xml version='1.0' encoding='UTF-8'?>
<svg width="49mm" height="49mm" version="1.1" viewBox="0 0 49 49" xmlns="http://www.w3.org/2000/svg"><rect width="49" height="49" fill="white"/><path d="M4,4H5V5H4zM5,4H6V5H5zM6,4H7V5H6zM7,4H8V5H7zM8,4H9V5H8zM9,4H10V5H9zM10,4H11V5H10zM13,4H14V5H13zM14,4H15V5H14zM15,4H16V5H15zM17,4H18V5H17zM20,4H21V5H20zM21,4H22V5H21zM23,4H24V5H23zM24,4H25V5H24zM25,4H26V5H25zM27,4H28V5H27zM28,4H29V5H28zM32,4H33V5H32zM34,4H35V5H34zM35,4H36V5H35zM36,4H37V5H36zM38,4H39V5H38zM39,4H40V5H39zM40,4H41V5H40zM41,4H42V5H41zM42,4H43V5H42zM43,4H44V5H43zM44,4H45V5H44zM4,5H5V6H4zM10,5H11V6H10zM14,5H15V6H14zM17,5H18V6H17zM24,5H25V6H24zM25,5H26V6H25zM26,5H27V6H26zM29,5H30V6H29zM31,5H32V6H31zM32,5H33V6H32zM36,5H37V6H36zM38,5H39V6H38zM44,5H45V6H44zM4,6H5V7H4zM6,6H7V7H6zM7,6H8V7H7zM8,6H9V7H8zM10,6H11V7H10zM12,6H13V7H12zM14,6H15V7H14zM15,6H16V7H15zM18,6H19V7H18zM19,6H20V7H19zM20,6H21V7H20zM23,6H24V7H23zM24,6H25V7H24zM25,6H26V7H25zM26,6H27V7H26zM28,6H29V7H28zM30,6H31V7H30zM32,6H33V7H32zM34,6H35V7H34zM36,6H37V7H36zM38,6H39V7H38zM40,6H41V7H40zM41,6H42V7H41zM42,6H43V7H42zM44,6H45V7H44zM4,7H5V8H4zM6,7H7V8H6zM7,7H8V8H7zM8,7H9V8H8zM10,7H11V8H10zM12,7H13V8H12zM16,7H17V8H16zM18,7H19V8H18zM21,7H22V8H21zM22,7H23V8H22zM23,7H24V8H23zM26,7H27V8H26zM27,7H28V8H27zM29,7H30V8H29zM31,7H32V8H31zM32,7H33V8H32zM33,7H34V8H33zM38,7H39V8H38zM40,7H41V8H40zM41,7H42V8H41zM42,7H43V8H42zM44,7H45V8H44zM4,8H5V9H4zM6,8H7V9H6zM7,8H8V9H7zM8,8H9V9H8zM10,8H11V9H10zM12,8H13V9H12zM16,8H17V9H16zM18,8H19V9H18zM20,8H21V9H20zM24,8H25V9H24zM26,8H27V9H26zM30,8H31V9H30zM33,8H34V9H33zM34,8H35V9H34zM35,8H36V9H35zM36,8H37V9H36zM38,8H39V9H38zM40,8H41V9H40zM41,8H42V9H41zM42,8H43V9H42zM44,8H45V9H44zM4,9H5V10H4zM10,9H11V10H10zM12,9H13V10H12zM14,9H15V10H14zM15,9H16V10H15zM16,9H17V10H16zM18,9H19V10H18zM19,9H20V10H19zM20,9H21V10H20zM21,9H22V10H21zM24,9H25V10H24zM26,9H27V10H26zM31,9H32V10H31zM33,9H34V10H33zM36,9H37V10H36zM38,9H39V10H38zM44,9H45V10H44zM4,10H5V11H4zM5,10H6V11H5zM6,10H7V11H6zM7,10H8V11H7zM8,10H9V11H8zM9,10H10V11H9zM10,10H11V11H10zM12,10H13V11H12zM14,10H15V11H14zM16,10H17V11H16zM18,10H19V11H18zM20,10H21V11H20zM22,10H23V11H22zM24,10H25V11H24zM26,10H27V11H26zM28,10H29V11H28zM30,10H31V11H30zM32,10H33V11H32zM34,10H35V11H34zM36,10H37V11H36zM38,10H39V11H38zM39,10H40V11H39zM40,10H41V11H40zM41,10H42V11H41zM42,10H43V11H42zM43,10H44V11H43zM44,10H45V11H44zM12,11H13V12H12zM14,11H15V12H14zM19,11H20V12H19zM20,11H21V12H20zM24,11H25V12H24zM25,11H26V12H25zM26,11H27V12H26zM27,11H28V12H27zM31,11H32V12H31zM32,11H33V12H32zM35,11H36V12H35zM4,12H5V13H4zM6,12H7V13H6zM7,12H8V13H7zM8,12H9V13H8zM9,12H10V13H9zM10,12H11V13H10zM13,12H14V13H13zM14,12H15V13H14zM16,12H17V13H16zM18,12H19V13H18zM21,12H22V13H21zM24,12H25V13H24zM28,12H29V13H28zM29,12H30V13H29zM31,12H32V13H31zM32,12H33V13H32zM33,12H34V13H33zM34,12H35V13H34zM38,12H39V13H38zM39,12H40V13H39zM40,12H41V13H40zM41,12H42V13H41zM42,12H43V13H42zM4,13H5V14H4zM6,13H7V14H6zM7,13H8V14H7zM11,13H12V14H11zM12,13H13V14H12zM14,13H15V14H14zM15,13H16V14H15zM19,13H20V14H19zM20,13H21V14H20zM21,13H22V14H21zM22,13H23V14H22zM23,13H24V14H23zM24,13H25V14H24zM27,13H28V14H27zM29,13H30V14H29zM32,13H33V14H32zM34,13H35V14H34zM35,13H36V14H35zM37,13H38V14H37zM38,13H39V14H38zM39,13H40V14H39zM40,13H41V14H40zM41,13H42V14H41zM42,13H43V14H42zM43,13H44V14H43zM44,13H45V14H44zM4,14H5V15H4zM6,14H7V15H6zM8,14H9V15H8zM9,14H10V15H9zM10,14H11V15H10zM12,14H13V15H12zM16,14H17V15H16zM17,14H18V15H17zM18,14H19V15H18zM19,14H20V15H19zM22,14H23V15H22zM25,14H26V15H25zM30,14H31V15H30zM31,14H32V15H31zM37,14H38V15H37zM38,14H39V15H38zM41,14H42V15H41zM42,14H43V15H42zM5,15H6V16H5zM9,15H10V16H9zM11,15H12V16H11zM12,15H13V16H12zM13,15H14V16H13zM18,15H19V16H18zM22,15H23V16H22zM24,15H25V16H24zM25,15H26V16H25zM26,15H27V16H26zM30,15H31V16H30zM31,15H32V16H31zM32,15H33V16H32zM35,15H36V16H35zM37,15H38V16H37zM39,15H40V16H39zM40,15H41V16H40zM41,15H42V16H41zM43,15H44V16H43zM6,16H7V17H6zM10,16H11V17H10zM13,16H14V17H13zM17,16H18V17H17zM24,16H25V17H24zM27,16H28V17H27zM28,16H29V17H28zM30,16H31V17H30zM31,16H32V17H31zM32,16H33V17H32zM33,16H34V17H33zM35,16H36V17H35zM39,16H40V17H39zM41,16H42V17H41zM42,16H43V17H42zM43,16H44V17H43zM44,16H45V17H44zM4,17H5V18H4zM7,17H8V18H7zM12,17H13V18H12zM13,17H14V18H13zM16,17H17V18H16zM23,17H24V18H23zM25,17H26V18H25zM26,17H27V18H26zM27,17H28V18H27zM29,17H30V18H29zM32,17H33V18H32zM34,17H35V18H34zM35,17H36V18H35zM36,17H37V18H36zM37,17H38V18H37zM39,17H40V18H39zM40,17H41V18H40zM41,17H42V18H41zM5,18H6V19H5zM6,18H7V19H6zM8,18H9V19H8zM10,18H11V19H10zM11,18H12V19H11zM12,18H13V19H12zM13,18H14V19H13zM15,18H16V19H15zM18,18H19V19H18zM21,18H22V19H21zM22,18H23V19H22zM26,18H27V19H26zM28,18H29V19H28zM31,18H32V19H31zM39,18H40V19H39zM40,18H41V19H40zM41,18H42V19H41zM6,19H7V20H6zM7,19H8V20H7zM8,19H9V20H8zM18,19H19V20H18zM22,19H23V20H22zM24,19H25V20H24zM25,19H26V20H25zM28,19H29V20H28zM30,19H31V20H30zM31,19H32V20H31zM32,19H33V20H32zM35,19H36V20H35zM36,19H37V20H36zM40,19H41V20H40zM41,19H42V20H41zM44,19H45V20H44zM5,20H6V21H5zM10,20H11V21H10zM12,20H13V21H12zM15,20H16V21H15zM16,20H17V21H16zM21,20H22V21H21zM26,20H27V21H26zM29,20H30V21H29zM30,20H31V21H30zM31,20H32V21H31zM32,20H33V21H32zM33,20H34V21H33zM36,20H37V21H36zM39,20H40V21H39zM41,20H42V21H41zM42,20H43V21H42zM43,20H44V21H43zM9,21H10V22H9zM11,21H12V22H11zM17,21H18V22H17zM19,21H20V22H19zM22,21H23V22H22zM23,21H24V22H23zM24,21H25V22H24zM25,21H26V22H25zM27,21H28V22H27zM29,21H30V22H29zM32,21H33V22H32zM33,21H34V22H33zM35,21H36V22H35zM36,21H37V22H36zM38,21H39V22H38zM39,21H40V22H39zM40,21H41V22H40zM43,21H44V22H43zM44,21H45V22H44zM5,22H6V23H5zM10,22H11V23H10zM13,22H14V23H13zM14,22H15V23H14zM15,22H16V23H15zM19,22H20V23H19zM20,22H21V23H20zM21,22H22V23H21zM22,22H23V23H22zM24,22H25V23H24zM30,22H31V23H30zM31,22H32V23H31zM34,22H35V23H34zM36,22H37V23H36zM37,22H38V23H37zM39,22H40V23H39zM40,22H41V23H40zM4,23H5V24H4zM5,23H6V24H5zM7,23H8V24H7zM11,23H12V24H11zM14,23H15V24H14zM15,23H16V24H15zM16,23H17V24H16zM17,23H18V24H17zM19,23H20V24H19zM20,23H21V24H20zM23,23H24V24H23zM24,23H25V24H24zM25,23H26V24H25zM30,23H31V24H30zM31,23H32V24H31zM32,23H33V24H32zM35,23H36V24H35zM37,23H38V24H37zM40,23H41V24H40zM41,23H42V24H41zM44,23H45V24H44zM4,24H5V25H4zM5,24H6V25H5zM6,24H7V25H6zM8,24H9V25H8zM10,24H11V25H10zM12,24H13V25H12zM13,24H14V25H13zM17,24H18V25H17zM18,24H19V25H18zM20,24H21V25H20zM21,24H22V25H21zM22,24H23V25H22zM26,24H27V25H26zM29,24H30V25H29zM31,24H32V25H31zM32,24H33V25H32zM33,24H34V25H33zM36,24H37V25H36zM40,24H41V25H40zM41,24H42V25H41zM43,24H44V25H43zM44,24H45V25H44zM5,25H6V26H5zM6,25H7V26H6zM9,25H10V26H9zM12,25H13V26H12zM16,25H17V26H16zM17,25H18V26H17zM18,25H19V26H18zM19,25H20V26H19zM20,25H21V26H20zM21,25H22V26H21zM24,25H25V26H24zM25,25H26V26H25zM29,25H30V26H29zM30,25H31V26H30zM32,25H33V26H32zM33,25H34V26H33zM34,25H35V26H34zM35,25H36V26H35zM36,25H37V26H36zM38,25H39V26H38zM39,25H40V26H39zM40,25H41V26H40zM41,25H42V26H41zM42,25H43V26H42zM43,25H44V26H43zM44,25H45V26H44zM5,26H6V27H5zM6,26H7V27H6zM10,26H11V27H10zM13,26H14V27H13zM14,26H15V27H14zM15,26H16V27H15zM16,26H17V27H16zM17,26H18V27H17zM19,26H20V27H19zM22,26H23V27H22zM25,26H26V27H25zM26,26H27V27H26zM29,26H30V27H29zM30,26H31V27H30zM31,26H32V27H31zM32,26H33V27H32zM33,26H34V27H33zM36,26H37V27H36zM37,26H38V27H37zM38,26H39V27H38zM39,26H40V27H39zM41,26H42V27H41zM4,27H5V28H4zM5,27H6V28H5zM8,27H9V28H8zM9,27H10V28H9zM12,27H13V28H12zM13,27H14V28H13zM16,27H17V28H16zM17,27H18V28H17zM18,27H19V28H18zM20,27H21V28H20zM25,27H26V28H25zM26,27H27V28H26zM27,27H28V28H27zM28,27H29V28H28zM30,27H31V28H30zM31,27H32V28H31zM32,27H33V28H32zM35,27H36V28H35zM36,27H37V28H36zM40,27H41V28H40zM43,27H44V28H43zM44,27H45V28H44zM4,28H5V29H4zM6,28H7V29H6zM10,28H11V29H10zM11,28H12V29H11zM12,28H13V29H12zM14,28H15V29H14zM15,28H16V29H15zM16,28H17V29H16zM19,28H20V29H19zM20,28H21V29H20zM21,28H22V29H21zM24,28H25V29H24zM28,28H29V29H28zM29,28H30V29H29zM30,28H31V29H30zM31,28H32V29H31zM32,28H33V29H32zM33,28H34V29H33zM35,28H36V29H35zM36,28H37V29H36zM41,28H42V29H41zM42,28H43V29H42zM43,28H44V29H43zM44,28H45V29H44zM4,29H5V30H4zM5,29H6V30H5zM6,29H7V30H6zM7,29H8V30H7zM12,29H13V30H12zM13,29H14V30H13zM15,29H16V30H15zM18,29H19V30H18zM19,29H20V30H19zM20,29H21V30H20zM22,29H23V30H22zM23,29H24V30H23zM24,29H25V30H24zM25,29H26V30H25zM26,29H27V30H26zM27,29H28V30H27zM29,29H30V30H29zM32,29H33V30H32zM35,29H36V30H35zM38,29H39V30H38zM40,29H41V30H40zM41,29H42V30H41zM43,29H44V30H43zM44,29H45V30H44zM4,30H5V31H4zM5,30H6V31H5zM9,30H10V31H9zM10,30H11V31H10zM11,30H12V31H11zM13,30H14V31H13zM14,30H15V31H14zM15,30H16V31H15zM16,30H17V31H16zM17,30H18V31H17zM19,30H20V31H19zM22,30H23V31H22zM29,30H30V31H29zM31,30H32V31H31zM32,30H33V31H32zM33,30H34V31H33zM34,30H35V31H34zM37,30H38V31H37zM40,30H41V31H40zM4,31H5V32H4zM9,31H10V32H9zM16,31H17V32H16zM17,31H18V32H17zM18,31H19V32H18zM19,31H20V32H19zM20,31H21V32H20zM22,31H23V32H22zM25,31H26V32H25zM26,31H27V32H26zM32,31H33V32H32zM40,31H41V32H40zM41,31H42V32H41zM43,31H44V32H43zM5,32H6V33H5zM6,32H7V33H6zM7,32H8V33H7zM10,32H11V33H10zM13,32H14V33H13zM14,32H15V33H14zM15,32H16V33H15zM18,32H19V33H18zM25,32H26V33H25zM26,32H27V33H26zM30,32H31V33H30zM32,32H33V33H32zM33,32H34V33H33zM35,32H36V33H35zM37,32H38V33H37zM41,32H42V33H41zM42,32H43V33H42zM4,33H5V34H4zM6,33H7V34H6zM7,33H8V34H7zM8,33H9V34H8zM13,33H14V34H13zM18,33H19V34H18zM21,33H22V34H21zM22,33H23V34H22zM23,33H24V34H23zM24,33H25V34H24zM25,33H26V34H25zM27,33H28V34H27zM29,33H30V34H29zM32,33H33V34H32zM35,33H36V34H35zM38,33H39V34H38zM39,33H40V34H39zM40,33H41V34H40zM42,33H43V34H42zM44,33H45V34H44zM4,34H5V35H4zM7,34H8V35H7zM10,34H11V35H10zM12,34H13V35H12zM14,34H15V35H14zM17,34H18V35H17zM18,34H19V35H18zM22,34H23V35H22zM24,34H25V35H24zM25,34H26V35H25zM28,34H29V35H28zM29,34H30V35H29zM30,34H31V35H30zM31,34H32V35H31zM32,34H33V35H32zM33,34H34V35H33zM34,34H35V35H34zM36,34H37V35H36zM41,34H42V35H41zM43,34H44V35H43zM4,35H5V36H4zM7,35H8V36H7zM8,35H9V36H8zM9,35H10V36H9zM11,35H12V36H11zM13,35H14V36H13zM15,35H16V36H15zM16,35H17V36H16zM20,35H21V36H20zM23,35H24V36H23zM24,35H25V36H24zM25,35H26V36H25zM26,35H27V36H26zM27,35H28V36H27zM31,35H32V36H31zM34,35H35V36H34zM37,35H38V36H37zM39,35H40V36H39zM44,35H45V36H44zM4,36H5V37H4zM6,36H7V37H6zM8,36H9V37H8zM10,36H11V37H10zM17,36H18V37H17zM18,36H19V37H18zM21,36H22V37H21zM23,36H24V37H23zM26,36H27V37H26zM28,36H29V37H28zM30,36H31V37H30zM32,36H33V37H32zM33,36H34V37H33zM34,36H35V37H34zM36,36H37V37H36zM37,36H38V37H37zM38,36H39V37H38zM39,36H40V37H39zM40,36H41V37H40zM42,36H43V37H42zM43,36H44V37H43zM44,36H45V37H44zM12,37H13V38H12zM13,37H14V38H13zM14,37H15V38H14zM16,37H17V38H16zM19,37H20V38H19zM20,37H21V38H20zM23,37H24V38H23zM24,37H25V38H24zM27,37H28V38H27zM31,37H32V38H31zM32,37H33V38H32zM35,37H36V38H35zM36,37H37V38H36zM40,37H41V38H40zM42,37H43V38H42zM43,37H44V38H43zM44,37H45V38H44zM4,38H5V39H4zM5,38H6V39H5zM6,38H7V39H6zM7,38H8V39H7zM8,38H9V39H8zM9,38H10V39H9zM10,38H11V39H10zM13,38H14V39H13zM16,38H17V39H16zM17,38H18V39H17zM18,38H19V39H18zM19,38H20V39H19zM22,38H23V39H22zM25,38H26V39H25zM29,38H30V39H29zM30,38H31V39H30zM31,38H32V39H31zM32,38H33V39H32zM33,38H34V39H33zM35,38H36V39H35zM36,38H37V39H36zM38,38H39V39H38zM40,38H41V39H40zM4,39H5V40H4zM10,39H11V40H10zM12,39H13V40H12zM15,39H16V40H15zM16,39H17V40H16zM17,39H18V40H17zM19,39H20V40H19zM22,39H23V40H22zM24,39H25V40H24zM25,39H26V40H25zM26,39H27V40H26zM27,39H28V40H27zM28,39H29V40H28zM31,39H32V40H31zM32,39H33V40H32zM35,39H36V40H35zM36,39H37V40H36zM40,39H41V40H40zM41,39H42V40H41zM43,39H44V40H43zM44,39H45V40H44zM4,40H5V41H4zM6,40H7V41H6zM7,40H8V41H7zM8,40H9V41H8zM10,40H11V41H10zM12,40H13V41H12zM14,40H15V41H14zM17,40H18V41H17zM19,40H20V41H19zM20,40H21V41H20zM22,40H23V41H22zM23,40H24V41H23zM24,40H25V41H24zM26,40H27V41H26zM27,40H28V41H27zM29,40H30V41H29zM33,40H34V41H33zM36,40H37V41H36zM37,40H38V41H37zM38,40H39V41H38zM39,40H40V41H39zM40,40H41V41H40zM41,40H42V41H41zM44,40H45V41H44zM4,41H5V42H4zM6,41H7V42H6zM7,41H8V42H7zM8,41H9V42H8zM10,41H11V42H10zM12,41H13V42H12zM13,41H14V42H13zM14,41H15V42H14zM15,41H16V42H15zM18,41H19V42H18zM21,41H22V42H21zM22,41H23V42H22zM24,41H25V42H24zM25,41H26V42H25zM32,41H33V42H32zM34,41H35V42H34zM35,41H36V42H35zM36,41H37V42H36zM41,41H42V42H41zM42,41H43V42H42zM43,41H44V42H43zM44,41H45V42H44zM4,42H5V43H4zM6,42H7V43H6zM7,42H8V43H7zM8,42H9V43H8zM10,42H11V43H10zM12,42H13V43H12zM16,42H17V43H16zM19,42H20V43H19zM25,42H26V43H25zM26,42H27V43H26zM28,42H29V43H28zM30,42H31V43H30zM31,42H32V43H31zM37,42H38V43H37zM38,42H39V43H38zM39,42H40V43H39zM40,42H41V43H40zM41,42H42V43H41zM4,43H5V44H4zM10,43H11V44H10zM13,43H14V44H13zM14,43H15V44H14zM16,43H17V44H16zM20,43H21V44H20zM22,43H23V44H22zM24,43H25V44H24zM25,43H26V44H25zM27,43H28V44H27zM28,43H29V44H28zM34,43H35V44H34zM35,43H36V44H35zM36,43H37V44H36zM37,43H38V44H37zM40,43H41V44H40zM41,43H42V44H41zM43,43H44V44H43zM4,44H5V45H4zM5,44H6V45H5zM6,44H7V45H6zM7,44H8V45H7zM8,44H9V45H8zM9,44H10V45H9zM10,44H11V45H10zM12,44H13V45H12zM15,44H16V45H15zM24,44H25V45H24zM28,44H29V45H28zM29,44H30V45H29zM30,44H31V45H30zM31,44H32V45H31zM33,44H34V45H33zM37,44H38V45H37zM40,44H41V45H40zM41,44H42V45H41z" id="qr-path" fill="#000000" fill-opacity="1" fill-rule="nonzero" stroke="none"/></svg>
